<svg width="220" height="60" viewBox="0 0 220 60" fill="none" xmlns="http://www.w3.org/2000/svg">
  <!-- Circular Emblem with "S" -->
  <g>
    <!-- Outer dark blue ring -->
    <circle cx="30" cy="30" r="28" fill="#1E40AF" stroke="#1E3A8A" stroke-width="2"/>
    
    <!-- Gradient definition for S -->
    <defs>
      <linearGradient id="sGradient" x1="20%" y1="20%" x2="80%" y2="80%">
        <stop offset="0%" style="stop-color:#60A5FA;stop-opacity:1" />
        <stop offset="30%" style="stop-color:#3B82F6;stop-opacity:1" />
        <stop offset="70%" style="stop-color:#2563EB;stop-opacity:1" />
        <stop offset="100%" style="stop-color:#1E40AF;stop-opacity:1" />
      </linearGradient>
    </defs>
    
    <!-- Stylized S letter with 3D gradient effect -->
    <path d="M 25 15 C 25 12, 28 9, 30 9 C 35 9, 39 12, 41 16 C 43 20, 42 23, 40 24 C 42 25, 45 28, 45 32 C 45 38, 39 42, 33 42 C 27 42, 23 38, 23 34 C 23 31, 25 29, 28 29 C 31 29, 33 31, 33 34 C 33 37, 31 39, 28 39 C 25 39, 23 37, 23 34 Z M 25 20 C 25 17, 28 14, 30 14 C 32 14, 35 17, 35 20 C 35 23, 32 26, 30 26 C 28 26, 25 23, 25 20 Z" fill="url(#sGradient)"/>
  </g>
  
  <!-- STOREFRONT Wordmark -->
  <text x="68" y="40" font-family="system-ui, -apple-system, sans-serif" font-size="22" font-weight="bold" fill="#1E40AF" letter-spacing="0.5">STOREFRONT</text>
</svg>
